<svg width="36" height="46" fill="none" xmlns="http://www.w3.org/2000/svg"><path d="M.5 5.672h4.316s2.572-.141 4.198 1.85l9.425 12.062h-6.614s-2.93.13-4.118-1.89L.5 5.672Z" fill="url('#paint0_linear_282_30946')"/><path d="m15.348 30.52 3.881 6.512s1.426 3.297 6.139 3.297h9.898L21.25 23.121l-5.9 1.368s-1.624 2.17 0 6.03Z" fill="url('#paint1_linear_282_30946')"/><path d="m23.357 25.713-2.272-2.795-5.725 1.571s-1.623 2.171 0 6.03l.238.413c-.019-.256-.195-4.238 7.759-5.22Z" fill="url('#paint2_linear_282_30946')"/><path d="M15.582 30.92s-1.793-4.681 4.058-6.924c0 0 4.169-1.513 6.957-.616 0 0-.193-3.42-7.04-3.196 0 0-3.615-.028-6.46.982 0 0-3.008.812-.772 4.316l3.257 5.438Z" fill="url('#paint3_linear_282_30946')"/><defs><linearGradient id="paint0_linear_282_30946" x1="9.469" y1="5.67" x2="9.469" y2="19.585" gradientUnits="userSpaceOnUse"><stop offset=".033" stop-color="#19AADE"/><stop offset=".951" stop-color="#134E8E"/></linearGradient><linearGradient id="paint1_linear_282_30946" x1="24.947" y1="23.121" x2="24.947" y2="40.329" gradientUnits="userSpaceOnUse"><stop offset=".132" stop-color="#E02527"/><stop offset=".742" stop-color="#A1141C"/></linearGradient><linearGradient id="paint2_linear_282_30946" x1="14.639" y1="26.925" x2="23.357" y2="26.925" gradientUnits="userSpaceOnUse"><stop offset=".005" stop-color="#71251D"/><stop offset=".742" stop-color="#C73127"/></linearGradient><linearGradient id="paint3_linear_282_30946" x1="11.499" y1="25.547" x2="26.598" y2="25.547" gradientUnits="userSpaceOnUse"><stop offset=".148" stop-color="#E8EBEE"/><stop offset=".742" stop-color="#95A5AF"/></linearGradient></defs></svg>