<svg width="24" height="24" fill="none" xmlns="http://www.w3.org/2000/svg"><g filter="url('#filter0_d_282_30522')" fill-rule="evenodd" clip-rule="evenodd" fill="#303030"><path d="M7.427 5.143a.571.571 0 0 0-.571.571V8a.571.571 0 1 0 1.143 0V5.714a.571.571 0 0 0-.572-.571Zm0-1.143a1.714 1.714 0 0 1 1.714 1.714V8a1.714 1.714 0 1 1-3.428 0V5.714A1.714 1.714 0 0 1 7.427 4Z"/><path d="M8 6.857c0-.316.256-.572.571-.572h12.572a.571.571 0 1 1 0 1.143H8.57A.571.571 0 0 1 8 6.857ZM2.285 6.857c0-.316.256-.572.572-.572h3.428a.571.571 0 1 1 0 1.143H2.857a.571.571 0 0 1-.572-.571ZM7.427 16.57a.571.571 0 0 0-.571.572v2.286a.571.571 0 1 0 1.143 0v-2.286a.571.571 0 0 0-.572-.571Zm-1.212-.64a1.714 1.714 0 0 1 2.926 1.212v2.286a1.714 1.714 0 1 1-3.428 0v-2.286c0-.455.18-.89.502-1.212Z"/><path d="M8 18.286c0-.315.256-.571.571-.571h12.572a.571.571 0 0 1 0 1.143H8.57A.571.571 0 0 1 8 18.286ZM2.285 18.286c0-.315.256-.571.572-.571h3.428a.571.571 0 0 1 0 1.143H2.857a.571.571 0 0 1-.572-.572ZM16.572 10.858a.572.572 0 0 0-.572.571v2.286a.572.572 0 0 0 1.143 0v-2.286a.571.571 0 0 0-.571-.571Zm0-1.143a1.714 1.714 0 0 1 1.714 1.714v2.286a1.714 1.714 0 1 1-3.429 0v-2.286a1.714 1.714 0 0 1 1.715-1.714Z"/><path d="M2.285 12.571c0-.315.256-.571.572-.571h12.571a.571.571 0 1 1 0 1.143H2.857a.571.571 0 0 1-.572-.572ZM17.143 12.571c0-.315.255-.571.571-.571h3.429a.571.571 0 1 1 0 1.143h-3.429a.571.571 0 0 1-.571-.572Z"/></g><defs><filter id="filter0_d_282_30522" x="-2" y="-2" width="28" height="28" filterUnits="userSpaceOnUse" color-interpolation-filters="sRGB"><feFlood flood-opacity="0" result="BackgroundImageFix"/><feColorMatrix in="SourceAlpha" values="0 0 0 0 0 0 0 0 0 0 0 0 0 0 0 0 0 0 127 0" result="hardAlpha"/><feMorphology radius="2" operator="dilate" in="SourceAlpha" result="effect1_dropShadow_282_30522"/><feOffset/><feComposite in2="hardAlpha" operator="out"/><feColorMatrix values="0 0 0 0 1 0 0 0 0 1 0 0 0 0 1 0 0 0 0.01 0"/><feBlend in2="BackgroundImageFix" result="effect1_dropShadow_282_30522"/><feBlend in="SourceGraphic" in2="effect1_dropShadow_282_30522" result="shape"/></filter></defs></svg>