<svg width="119" height="25" fill="none" xmlns="http://www.w3.org/2000/svg"><path stroke="#CCC" stroke-dasharray="3 3" d="M5.492 12.789h103.552"/><path d="M58.072 22.707h-1.365a.883.883 0 0 1-.393-.091.797.797 0 0 1-.297-.253.692.692 0 0 1-.058-.716l3.307-6.667-4.965-.101-1.81 2.005c-.346.396-.62.573-1.324.573h-.919a.979.979 0 0 1-.421-.081.894.894 0 0 1-.333-.25c-.122-.15-.242-.405-.125-.77l1.017-3.327a.804.804 0 0 1 .027-.074v-.007a.653.653 0 0 1-.027-.075l-1.018-3.35c-.11-.356.01-.605.131-.752a.85.85 0 0 1 .308-.233.931.931 0 0 1 .39-.081h.97c.525 0 1.034.215 1.334.563l1.773 1.97 4.992-.067-3.305-6.656a.694.694 0 0 1 .057-.716.797.797 0 0 1 .297-.252.883.883 0 0 1 .392-.092h1.38c.193.004.382.047.554.126.172.08.322.194.439.333l6.414 7.125 2.963-.07c.217-.012.819-.015.958-.015 2.834.001 4.527.842 4.527 2.251 0 .443-.194 1.266-1.491 1.789-.766.31-1.788.466-3.037.466-.138 0-.738-.004-.958-.015l-2.962-.072-6.43 7.125c-.118.14-.268.253-.44.332a1.38 1.38 0 0 1-.552.125Z" fill="#1262AE"/><circle cx="5.751" cy="13.289" r="4" fill="#fff" stroke="#1262AE" stroke-width="2"/><circle cx="113.102" cy="12.871" r="4" fill="#fff" stroke="#1262AE" stroke-width="2"/></svg>