<svg width="66" height="66" fill="none" xmlns="http://www.w3.org/2000/svg"><rect x=".126" width="65.387" height="65.387" rx="16" fill="#F9668D"/><path d="M31.675 28.157h2.29v-1.134c0-.301.121-.59.336-.802a1.15 1.15 0 0 1 .81-.333h3.435c.304 0 .595.12.81.332.214.213.335.502.335.803v1.134h4.58v-4.538a4.516 4.516 0 0 0-1.341-3.208 4.603 4.603 0 0 0-3.239-1.329H25.95c-1.215 0-2.38.478-3.24 1.329a4.516 4.516 0 0 0-1.34 3.208v4.538h4.58v-1.134c0-.301.12-.59.335-.802a1.15 1.15 0 0 1 .81-.333h3.435c.304 0 .595.12.81.332.215.213.335.502.335.803v1.134ZM22.514 30.426a5.753 5.753 0 0 0-4.048 1.661 5.645 5.645 0 0 0-1.677 4.01v9.076c0 .3.12.59.335.802a1.15 1.15 0 0 0 1.62 0c.215-.213.335-.502.335-.802V39.5h27.482v5.672c0 .3.12.59.335.802a1.15 1.15 0 0 0 1.62 0c.214-.213.335-.502.335-.802v-9.075a5.645 5.645 0 0 0-1.677-4.011 5.753 5.753 0 0 0-4.048-1.661H22.514Z" fill="#fff"/></svg>