<svg width="32" height="32" fill="none" xmlns="http://www.w3.org/2000/svg"><path d="M21.461 1.042A3.53 3.53 0 0 0 18.978.023a3.53 3.53 0 0 0-2.484 1.02L1.066 16.326A3.48 3.48 0 0 0 .037 18.79a3.452 3.452 0 0 0 1.03 2.461l1.83 1.812c.796.79 1.916.65 2.592.25a1.967 1.967 0 0 1 2.377.296 1.919 1.919 0 0 1 .298 2.355c-.401.67-.545 1.778.253 2.567l1.832 1.814a3.518 3.518 0 0 0 2.484 1.02 3.543 3.543 0 0 0 2.485-1.02l15.426-15.282a3.478 3.478 0 0 0 1.029-2.462 3.452 3.452 0 0 0-1.03-2.461l-1.828-1.813c-.796-.79-1.918-.65-2.594-.25a1.967 1.967 0 0 1-2.377-.296 1.92 1.92 0 0 1-.298-2.355c.403-.67.545-1.78-.253-2.568l-1.83-1.815h-.002Z" fill="#fff"/></svg>