<svg width="66" height="66" fill="none" xmlns="http://www.w3.org/2000/svg"><rect x=".198" width="65.387" height="65.387" rx="16" fill="#36DA76"/><path d="M41.36 45.438c-.055-1.174-.128-2.34-.186-3.506-.188-3.643-.173-7.34-.37-11-.197-3.634-.08-7.27-.184-10.904-.02-.755.013-2.247-.768-2.677-1.681-.925-2.68 1.598-3.107 2.625-.77 1.864-1.216 3.824-1.767 5.756-.47 1.653-1.004 3.3-1.185 5.012-.134 1.284-.122 2.722.55 3.88.336.58.919.976 1.582 1.144.688.176 1.476-.055 2.129.256a.83.83 0 0 1 .384.422c.212.55.012 1.385-.055 1.952-.21 1.829-.431 3.676-.53 5.513-.059 1.111-.124 2.535.548 3.503.412.588 1.247 1.137 2 .845 1.127-.431 1.005-1.888.958-2.821ZM27.033 18.162c-.324.13-.2 1.287-.215 1.643-.022.638.022 1.484-.055 2.311a.113.113 0 0 1-.003.018c-.006.058-.012.12-.021.185l-.029.187c-.069.404-.2.881-.448 1.11-.282.263-.914.208-1.133-.102-.359-.504-.332-1.63-.354-1.663a50.35 50.35 0 0 0-.208-3.204c-.01-.08-.025-.561-.465-.613-.205-.022-.42.153-.49.472-.206.94-.4 2.735-.412 3.017a1.04 1.04 0 0 0-.004.086v.008c-.001.058-.071 1.464-.427 1.949-.186.254-.669.454-1.148.185-.191-.108-.322-.317-.415-.54-.501-1.562-.05-3.282.013-4.102.02-.23.228-1-.238-.974-.701.038-1.607 3.026-1.769 3.71-.396 1.704-.457 3.525.234 5.168a3.728 3.728 0 0 0 2.064 2.017c.411.158.868.273 1.352.34-.174 3.873-.372 7.915-.552 10.164-.138 1.693-.302 3.404-.28 5.104.013 1.016.003 2.227.67 3.078.697.89 2.168.48 2.565-.57.445-1.185.316-2.566.164-4.742-.152-2.178-.324-5.15-.418-6.748a119.802 119.802 0 0 1-.2-6.288c1.239-.177 2.394-.709 3.04-1.686.284-.427.47-.905.598-1.397.196-.744.291-1.56.25-2.328-.044-.707-.625-6.212-1.666-5.795Z" fill="#fff"/></svg>