<svg width="36" height="46" fill="none" xmlns="http://www.w3.org/2000/svg"><path fill-rule="evenodd" clip-rule="evenodd" d="M35 25.976c.178-.983.267-1.98.267-2.979 0-.615-.034-1.194-.1-1.746-.014-.12-1.996 3.855-5.168 6.373 2.207-1.933 5.085-6.977 5.044-7.196-.035-.19-.074-.379-.118-.567-.38-1.627-1.063-3.073-1.995-4.645-.289 3.336-1.298 6.89-3.946 9.964 2.748-3.225 3.704-10.571 3.05-11.583-2.637-4.042-8.187-7.58-14.13-7.58l-.042.107v-.099c-5.942 0-11.492 3.538-14.128 7.58-.655 1.01.3 8.357 3.049 11.582-2.648-3.073-3.657-6.628-3.946-9.964-.933 1.572-1.616 3.018-1.995 4.645-.044.188-.084.377-.119.567-.04.219 2.838 5.263 5.045 7.196C2.596 25.113.613 21.138.599 21.258c-.067.58-.1 1.163-.099 1.746 0 1.016.091 2.012.266 2.98.162.894 3.849 3.357 3.944 3.434-2.677-1.023-3.783-2.632-3.682-2.243 1.9 7.36 8.717 12.809 16.834 12.809v-.008h.042c8.118 0 14.934-5.447 16.835-12.809.1-.388-1.005 1.22-3.683 2.244.095-.077 3.782-2.54 3.944-3.435Zm-11.483.654a3.96 3.96 0 0 1-.534.187c-1.665.443-3.98.28-5.061-1.102-1.095-1.398-.792-3.667.059-5.099.86-1.445 2.149-2.519 3.295-3.736.55-.58 1.109-1.15 1.678-1.712.37-.366 1.379-1.15 1.358-1.673-.01-.247-.47-.684-.598-.918-.186-.341-.303-.683-.502-1.009-.442-.718-1.035-1.046-1.834-1.2-.998-.193-1.715-.107-2.542.434-.622.408-1.27 1.168-2.03 1.248-1.2.127-6.429.974-6.676 1.128.645-.047 8.529.102 9.422.317 1.05.253 1.002 1.08.29 1.732-2.243 2.046-5.546 3.264-6.954 6.08-.659 1.318-1.082 2.209-1.083 3.75 0 .634.05 1.936.852 3.553-.037-.024-1.268-1.443-1.317-2.643-2.967-1.94-4.476-4.842-4.476-8.618 0-5.985 4.916-10.838 10.98-10.838 6.063 0 10.979 4.852 10.979 10.838 0 3.936-1.72 7.577-5.306 9.28Z" fill="#B4282E"/><path fill-rule="evenodd" clip-rule="evenodd" d="m18.318 29.918-1.433 3.849c-.825 2.218-4.33 1.752-4.453 1.752-.288 0-.509-.031-.729-.235l.525-.57c.125.093.32.148.52.148.164 0 1.964.382 2.501-1.095l1.433-3.849h1.636Zm10.115 4.827-.242.649h-4.928l2.038-5.476h1.654l-1.797 4.827h3.275Zm-7.347-4.813-4.366 5.475h.848l1.105-1.486h1.978l-.33 1.486h1.742l1.338-5.475h-2.315Zm-1.837 3.212L21.5 30.45l-.62 2.695h-1.633Z" fill="#fff"/></svg>