<svg width="130" height="30" fill="none" xmlns="http://www.w3.org/2000/svg"><path d="M15 .6C7.047.6.6 7.047.6 15S7.047 29.4 15 29.4 29.4 22.953 29.4 15 22.953.6 15 .6Zm3.41 9.95h-2.164c-.256 0-.541.338-.541.787V12.9h2.707l-.41 2.229h-2.297v6.691H13.15V15.13h-2.317v-2.23h2.317v-1.31c0-1.881 1.305-3.41 3.096-3.41h2.165v2.372ZM115 .6c-7.953 0-14.4 6.447-14.4 14.4s6.447 14.4 14.4 14.4 14.4-6.447 14.4-14.4S122.953.6 115 .6Zm5.857 11.796c.006.123.008.246.008.366 0 3.75-2.852 8.071-8.069 8.071a8.004 8.004 0 0 1-4.347-1.275c.221.027.447.038.677.038a5.681 5.681 0 0 0 3.522-1.214 2.843 2.843 0 0 1-2.649-1.968c.424.08.862.064 1.279-.05a2.839 2.839 0 0 1-2.275-2.78v-.035c.382.212.82.34 1.285.356a2.834 2.834 0 0 1-.877-3.79 8.067 8.067 0 0 0 5.845 2.966 2.833 2.833 0 0 1 1.422-3.151 2.836 2.836 0 0 1 3.411.564 5.688 5.688 0 0 0 1.8-.689 2.847 2.847 0 0 1-1.246 1.57 5.703 5.703 0 0 0 1.629-.448 5.767 5.767 0 0 1-1.415 1.469ZM69.5 15a4.5 4.5 0 1 1-9 0c0-.257.027-.507.073-.75H59v5.995c0 .417.337.755.754.755h10.493a.755.755 0 0 0 .753-.755V14.25h-1.574c.047.243.074.493.074.75ZM65 18a3 3 0 1 0-.002-6.001 3 3 0 0 0 .002 6Zm3.6-6.15h1.798a.452.452 0 0 0 .452-.45V9.6a.452.452 0 0 0-.452-.451H68.6a.451.451 0 0 0-.452.451V11.4c.002.247.204.45.452.45ZM65 .6a14.4 14.4 0 1 0 0 28.8A14.4 14.4 0 0 0 65 .6Zm7.5 20.233c0 .917-.75 1.667-1.667 1.667H59.166c-.916 0-1.666-.75-1.666-1.667V9.166c0-.916.75-1.666 1.666-1.666h11.667c.917 0 1.667.75 1.667 1.666v11.667Z" fill="#fff"/></svg>