<svg width="36" height="46" fill="none" xmlns="http://www.w3.org/2000/svg"><path fill-rule="evenodd" clip-rule="evenodd" d="M17.885 8.084c-8.609 0-15.653 7.203-15.653 16.174 0 8.969 7.045 16.172 15.653 16.172 8.607 0 15.652-7.203 15.652-16.172 0-8.97-7.046-16.174-15.652-16.174ZM.678 24.258c0-9.734 7.664-17.694 17.207-17.694 9.54 0 17.206 7.96 17.206 17.694 0 9.732-7.665 17.691-17.206 17.691C8.343 41.95.678 33.99.678 24.258Z" fill="#CF4037"/><path fill-rule="evenodd" clip-rule="evenodd" d="M22.845 20.545c-.757-5.248-5.18-7.839-7.944-9.39-2.564-1.44-4.86-2.095-4.915-1.926 2.916 2.345 4.789 5.999 4.789 10.104 0 6.732-5.04 12.25-11.441 12.766l.405.625c8.195-1.277 30.128-5.348 30.128-5.348l.058-.479-13.306-.455c1.468-1.553 2.474-4.187 2.226-5.897Z" fill="#CF4037"/></svg>