<svg width="17" height="19" fill="none" xmlns="http://www.w3.org/2000/svg"><path d="m16.137 7.041-5-.784-2.234-4.89a.654.654 0 0 0-.285-.309c-.312-.165-.69-.027-.845.309l-2.235 4.89L.54 7.04a.614.614 0 0 0-.36.198.71.71 0 0 0-.179.484c.002.18.07.352.19.478l3.617 3.807-.854 5.375a.73.73 0 0 0 .037.37c.044.118.118.22.213.295a.59.59 0 0 0 .663.051l4.472-2.538 4.471 2.538c.122.07.264.093.4.068.343-.064.573-.415.514-.784l-.855-5.375L16.485 8.2a.7.7 0 0 0 .183-.388c.054-.372-.187-.717-.531-.772Z" fill="#FDBF00"/></svg>