<svg width="19" height="17" fill="none" xmlns="http://www.w3.org/2000/svg"><path d="m18.199 6.21-5.638-.73-2.52-4.552a.673.673 0 0 0-.322-.287c-.351-.154-.777-.025-.953.287L6.246 5.48l-5.638.73a.743.743 0 0 0-.406.184.6.6 0 0 0-.202.45c.003.169.08.329.215.446l4.079 3.543-.964 5.003a.568.568 0 0 0 .042.346c.05.11.133.204.24.274a.782.782 0 0 0 .748.047l5.043-2.362 5.043 2.362a.782.782 0 0 0 .451.063c.386-.059.646-.385.58-.73l-.964-5.003 4.079-3.543a.61.61 0 0 0 .206-.362c.06-.346-.21-.666-.6-.718Z" fill="#FDBF00"/></svg>