<svg width="28" height="32" fill="none" xmlns="http://www.w3.org/2000/svg"><path d="M.469 23.667c0 1.467.656 2.784 1.682 3.7v2.134c0 1.383 1.127 2.5 2.524 2.5a2.508 2.508 0 0 0 2.523-2.5v-.834h13.46v.834c0 1.366 1.126 2.5 2.523 2.5 1.38 0 2.523-1.117 2.523-2.5v-2.134c1.026-.916 1.683-2.233 1.683-3.7V7.001c0-5.834-6.023-6.667-13.46-6.667C6.493.334.47 1.167.47 7.001v16.666Zm5.888 1.667a2.509 2.509 0 0 1-2.524-2.5c0-1.383 1.128-2.5 2.524-2.5a2.508 2.508 0 0 1 2.524 2.5c0 1.383-1.128 2.5-2.524 2.5Zm15.141 0a2.509 2.509 0 0 1-2.523-2.5c0-1.383 1.127-2.5 2.523-2.5a2.508 2.508 0 0 1 2.524 2.5c0 1.383-1.127 2.5-2.524 2.5Zm2.524-10H3.833V7.001h20.189v8.333Z" fill="#fff"/></svg>