<svg width="29" height="27" fill="none" xmlns="http://www.w3.org/2000/svg"><path d="M25.176 4.765c-.316-.86-1.198-1.473-2.238-1.473h-3.94V1.833c0-.802-.71-1.458-1.576-1.458h-6.304c-.866 0-1.576.656-1.576 1.458v1.459h-3.94c-1.04 0-1.906.612-2.237 1.473L.26 13.033c-.11.307-.173.627-.173.963v10.441c0 1.21 1.056 2.188 2.364 2.188 1.308 0 2.364-.977 2.364-2.188v-.729h18.91v.73c0 1.195 1.057 2.187 2.365 2.187 1.292 0 2.364-.977 2.364-2.188V13.996c0-.321-.064-.656-.174-.963l-3.104-8.268ZM5.603 19.333c-1.308 0-2.364-.977-2.364-2.187s1.056-2.188 2.364-2.188c1.308 0 2.364.977 2.364 2.188 0 1.21-1.056 2.187-2.364 2.187Zm17.335 0c-1.308 0-2.364-.977-2.364-2.187s1.056-2.188 2.364-2.188c1.308 0 2.364.977 2.364 2.188 0 1.21-1.056 2.187-2.364 2.187Zm-19.7-7.291 2.365-6.563h17.335l2.364 6.563H3.239Z" fill="#fff"/></svg>