<svg width="27" height="24" fill="none" xmlns="http://www.w3.org/2000/svg"><path d="M23.75.055H2.863C1.423.055.252 1.215.252 2.64v18.106c0 1.427 1.171 2.587 2.61 2.587H23.75c1.44 0 2.611-1.16 2.611-2.587V2.641c0-1.426-1.17-2.586-2.61-2.586Zm.002 7.76c-.002 0-.002 0 0 0h-.608L19.663 2.64h4.087l.002 5.173Zm-5.876 7.759-7.18 3.88v-7.76l7.18 3.88Zm-1.259-7.76-3.482-5.173h3.39l3.481 5.173h-3.389Zm-3.138 0h-3.39L6.61 2.641h3.388l3.482 5.173ZM2.863 2.641h.607l3.482 5.173h-4.09V2.641Z" fill="#fff"/></svg>