<svg width="17" height="19" fill="none" xmlns="http://www.w3.org/2000/svg"><path d="m16.106 7.041-4.99-.784-2.23-4.89a.653.653 0 0 0-.285-.309c-.31-.165-.688-.027-.843.309l-2.23 4.89-4.99.784a.612.612 0 0 0-.36.198.712.712 0 0 0-.178.484c.002.18.07.352.19.478l3.61 3.807-.853 5.375a.73.73 0 0 0 .037.37c.044.118.118.22.213.295a.587.587 0 0 0 .662.051l4.463-2.538 4.463 2.538c.122.07.263.093.399.068.342-.064.572-.415.513-.784l-.853-5.375 3.61-3.807a.7.7 0 0 0 .182-.388c.053-.372-.186-.717-.53-.772Z" fill="#FDBF00"/></svg>