<svg width="25" height="24" fill="none" xmlns="http://www.w3.org/2000/svg"><g clip-path="url('#clip0_282_30538')" fill="#1262AF"><path d="M12.873 21.891a9.892 9.892 0 1 1 0-19.783 9.892 9.892 0 0 1 0 19.783Zm0 1.413a11.304 11.304 0 1 0 0-22.609 11.304 11.304 0 0 0 0 22.609Z"/><path d="M10.35 7.2a.815.815 0 0 1 .848.062l5.704 4.074a.814.814 0 0 1 0 1.327l-5.705 4.075a.815.815 0 0 1-1.289-.663v-8.15a.815.815 0 0 1 .442-.725Z"/></g><defs><clipPath id="clip0_282_30538"><path fill="#fff" transform="translate(.873)" d="M0 0h24v24H0z"/></clipPath></defs></svg>